<svg width="64" height="64" viewBox="0 0 200 200" fill="none" xmlns="http://www.w3.org/2000/svg">
    <!-- Sleek Black Background -->
    <rect width="200" height="200" rx="30" fill="#121212"/>
    
    <!-- Authentic Konoha Hidden Leaf Symbol -->
    <path d="M142.129 15.523l-15.48 15.48c12.04 9.072 19.824 23.515 19.824 39.815 0 27.145-22.004 49.148-49.148 49.148-27.144 0-49.148-22.003-49.148-49.148 0-27.145 22.004-49.148 49.148-49.148 3.535 0 6.95.373 10.244 1.078l7.49-7.49C111.966 8.95 105.627 8.268 99.119 8.268 57.086 8.268 23 42.354 23 84.387c0 42.033 34.086 76.119 76.119 76.119 42.033 0 76.119-34.086 76.119-76.119 0-1.2-.04-2.39-.094-3.572l15.93-15.932c-.66-27.494-20.235-49.542-48.945-49.36zm-43.01 46.422c-12.394 0-22.441 10.047-22.441 22.441 0 12.394 10.047 22.441 22.441 22.441 12.394 0 22.441-10.047 22.441-22.441 0-12.394-10.047-22.441-22.441-22.441z" fill="#ff3131"/>
</svg>
